<mxfile host="app.diagrams.net" agent="Mozilla/5.0 (Windows NT 10.0; Win64; x64) AppleWebKit/537.36 (KHTML, like Gecko) Chrome/128.0.0.0 Safari/537.36" version="24.7.10">
  <diagram name="Страница — 1" id="sCgOnhwaDpkzGARd6CRu">
    <mxGraphModel dx="1434" dy="780" grid="1" gridSize="10" guides="1" tooltips="1" connect="1" arrows="1" fold="1" page="1" pageScale="1" pageWidth="827" pageHeight="1169" math="0" shadow="0">
      <root>
        <mxCell id="0" />
        <mxCell id="1" parent="0" />
        <mxCell id="ePHxQaOsta7aEtFNCFOc-11" style="edgeStyle=orthogonalEdgeStyle;rounded=0;orthogonalLoop=1;jettySize=auto;html=1;entryX=0.5;entryY=0;entryDx=0;entryDy=0;curved=1;" edge="1" parent="1" source="ePHxQaOsta7aEtFNCFOc-1" target="ePHxQaOsta7aEtFNCFOc-5">
          <mxGeometry relative="1" as="geometry" />
        </mxCell>
        <mxCell id="ePHxQaOsta7aEtFNCFOc-12" style="edgeStyle=orthogonalEdgeStyle;rounded=0;orthogonalLoop=1;jettySize=auto;html=1;entryX=0.5;entryY=0;entryDx=0;entryDy=0;curved=1;" edge="1" parent="1" source="ePHxQaOsta7aEtFNCFOc-1" target="ePHxQaOsta7aEtFNCFOc-3">
          <mxGeometry relative="1" as="geometry" />
        </mxCell>
        <mxCell id="ePHxQaOsta7aEtFNCFOc-1" value="&lt;font style=&quot;font-size: 48px;&quot;&gt;1&lt;/font&gt;" style="ellipse;whiteSpace=wrap;html=1;aspect=fixed;" vertex="1" parent="1">
          <mxGeometry x="374" y="210" width="80" height="80" as="geometry" />
        </mxCell>
        <mxCell id="ePHxQaOsta7aEtFNCFOc-9" style="edgeStyle=orthogonalEdgeStyle;rounded=0;orthogonalLoop=1;jettySize=auto;html=1;curved=1;" edge="1" parent="1" source="ePHxQaOsta7aEtFNCFOc-3" target="ePHxQaOsta7aEtFNCFOc-7">
          <mxGeometry relative="1" as="geometry" />
        </mxCell>
        <mxCell id="ePHxQaOsta7aEtFNCFOc-10" style="edgeStyle=orthogonalEdgeStyle;rounded=0;orthogonalLoop=1;jettySize=auto;html=1;curved=1;" edge="1" parent="1" source="ePHxQaOsta7aEtFNCFOc-3" target="ePHxQaOsta7aEtFNCFOc-6">
          <mxGeometry relative="1" as="geometry" />
        </mxCell>
        <mxCell id="ePHxQaOsta7aEtFNCFOc-3" value="&lt;font style=&quot;font-size: 48px;&quot;&gt;2&lt;/font&gt;" style="ellipse;whiteSpace=wrap;html=1;aspect=fixed;" vertex="1" parent="1">
          <mxGeometry x="294" y="330" width="80" height="80" as="geometry" />
        </mxCell>
        <mxCell id="ePHxQaOsta7aEtFNCFOc-5" value="&lt;font style=&quot;font-size: 48px;&quot;&gt;3&lt;/font&gt;" style="ellipse;whiteSpace=wrap;html=1;aspect=fixed;" vertex="1" parent="1">
          <mxGeometry x="454" y="330" width="80" height="80" as="geometry" />
        </mxCell>
        <mxCell id="ePHxQaOsta7aEtFNCFOc-6" value="&lt;font style=&quot;font-size: 48px;&quot;&gt;5&lt;/font&gt;" style="ellipse;whiteSpace=wrap;html=1;aspect=fixed;" vertex="1" parent="1">
          <mxGeometry x="374" y="460" width="80" height="80" as="geometry" />
        </mxCell>
        <mxCell id="ePHxQaOsta7aEtFNCFOc-7" value="&lt;font style=&quot;font-size: 48px;&quot;&gt;4&lt;/font&gt;" style="ellipse;whiteSpace=wrap;html=1;aspect=fixed;" vertex="1" parent="1">
          <mxGeometry x="214" y="460" width="80" height="80" as="geometry" />
        </mxCell>
      </root>
    </mxGraphModel>
  </diagram>
</mxfile>
